<svg width="32" height="32" viewBox="0 0 32 32" fill="none" xmlns="http://www.w3.org/2000/svg">
<path d="M16 2.77734C8.63625 2.77734 2.66669 8.7469 2.66669 16.1107C2.66669 22.008 6.49961 27.0023 11.8069 28.7611C12.4531 28.8619 12.7 28.4728 12.7 28.1277C12.7 27.811 12.6834 26.7611 12.6834 25.6444C9.33335 26.2611 8.46666 24.8277 8.20005 24.0777C7.90407 23.3483 7.43499 22.702 6.83335 22.1944C6.36671 21.9444 5.70005 21.3277 6.81667 21.311C7.68199 21.4049 8.44721 21.915 8.86673 22.6777C8.86803 22.6801 8.86933 22.6824 8.87063 22.6847C9.64009 24.0578 11.3769 24.5471 12.75 23.7777C12.8077 23.0998 13.1098 22.4661 13.6 21.9944C10.6334 21.661 7.53339 20.511 7.53339 15.411C7.51459 14.0858 8.00361 12.8038 8.90001 11.8277C8.49237 10.6759 8.54006 9.41202 9.03338 8.29434C9.03338 8.29434 10.15 7.94433 12.7 9.66104C14.8818 9.06094 17.185 9.06094 19.3667 9.66104C21.9167 7.92764 23.0334 8.29434 23.0334 8.29434C23.5266 9.41202 23.5743 10.6759 23.1667 11.8277C24.0658 12.8021 24.5552 14.0853 24.5334 15.411C24.5334 20.5276 21.4167 21.661 18.45 21.9944C19.0939 22.6469 19.4224 23.5471 19.35 24.461C19.35 26.2444 19.3334 27.6777 19.3334 28.1277C19.3325 28.1987 19.343 28.2694 19.3648 28.3371C19.4757 28.6822 19.845 28.872 20.1901 28.7621C25.499 27.0042 29.3334 22.0091 29.3334 16.1107C29.3334 8.7469 23.3638 2.77734 16 2.77734Z" fill="white"/>
</svg>
