<svg width="32" height="32" viewBox="0 0 32 32" fill="none" xmlns="http://www.w3.org/2000/svg">
<path d="M27.2908 2.66665H4.70912C3.641 2.6538 2.76438 3.50877 2.75055 4.57689V27.4237C2.76446 28.4918 3.64108 29.3465 4.70912 29.3333H27.2908C28.359 29.3466 29.2358 28.4916 29.2494 27.4234V4.57689C29.2357 3.50869 28.359 2.65362 27.2908 2.66665ZM10.784 24.9893H6.78131V12.948H10.784V24.9893ZM9.11098 11.3061C9.00168 11.3139 8.89199 11.3133 8.78286 11.304H8.75656C7.60651 11.3734 6.61798 10.4973 6.54864 9.34724C6.47931 8.19717 7.35536 7.20865 8.50543 7.13932C8.60667 7.13321 8.70831 7.13452 8.80939 7.14314C9.95896 7.05989 10.9583 7.92432 11.0416 9.07389C11.1249 10.2234 10.2605 11.2228 9.11098 11.3061ZM25.2156 24.9892H21.2135V18.5482C21.2135 16.9292 20.634 15.8251 19.1861 15.8251C18.261 15.8305 17.4391 16.4164 17.1324 17.2891C17.0299 17.604 16.9852 17.9347 17.0005 18.2655V24.9892H12.9985C12.9985 24.9857 13.051 14.0776 12.9989 12.9481H17.001V14.6548C17.7385 13.3712 19.1289 12.6044 20.6081 12.6656C23.2413 12.6656 25.2156 14.3866 25.2156 18.0851V24.9892H25.2156Z" fill="white"/>
</svg>
